<svg width="115" height="29" viewBox="0 0 115 29" fill="none" xmlns="http://www.w3.org/2000/svg">
<path d="M20.0309 4.304C23.6149 4.304 26.1429 7.12 26.1429 11.152V22H21.4709V11.92C21.4709 9.616 20.5429 8.4 18.8469 8.4C16.7669 8.4 15.5509 9.936 15.5509 12.656V22H10.9749V11.92C10.9749 9.616 10.1109 8.4 8.44688 8.4C6.33488 8.4 5.05488 9.936 5.05488 12.656V22H0.382883V4.72H3.64688L4.51088 6.864C5.75888 5.328 7.64688 4.304 9.69488 4.304C11.8709 4.304 13.6949 5.328 14.6869 7.088C15.8709 5.392 17.8549 4.304 20.0309 4.304ZM41.7564 4.72H46.7484L39.1964 21.776C37.1484 26.448 35.3244 28.24 31.4204 28.24H29.5004V24.016H31.1324C33.3724 24.016 33.8204 23.376 35.0364 20.816L35.1004 20.688L27.7724 4.72H32.8604L37.4684 15.344L41.7564 4.72ZM57.4246 17.84H59.5366V22H56.2406C52.4326 22 50.0966 19.664 50.0966 15.824V8.464H46.9606V7.472L53.8086 0.207998H54.6726V4.72H59.4406V8.464H54.7686V15.216C54.7686 16.88 55.7286 17.84 57.4246 17.84ZM70.7944 22.48C65.4184 22.48 61.4504 18.576 61.4504 13.36C61.4504 8.112 65.4184 4.24 70.7944 4.24C76.1064 4.24 80.1064 8.112 80.1064 13.36C80.1064 18.576 76.1064 22.48 70.7944 22.48ZM70.7944 18.096C73.4824 18.096 75.3704 16.144 75.3704 13.36C75.3704 10.576 73.4824 8.624 70.7944 8.624C68.0744 8.624 66.1864 10.576 66.1864 13.36C66.1864 16.144 68.0744 18.096 70.7944 18.096ZM91.3806 22.48C86.4846 22.48 83.2526 19.376 83.2526 14.704V4.72H87.9246V14.16C87.9246 16.624 89.2046 18.096 91.3806 18.096C93.5246 18.096 94.8046 16.592 94.8046 14.16V4.72H99.4766V14.704C99.4766 19.376 96.2766 22.48 91.3806 22.48ZM112.559 4.624H114.095V9.04H112.079C109.455 9.04 108.399 10.192 108.399 13.008V22H103.727V4.72H106.735L107.567 6.832C108.783 5.296 110.351 4.624 112.559 4.624Z" fill="#FF3366"/>
</svg>
